<?xml version="1.0" standalone="no"?>
<!DOCTYPE svg PUBLIC "-//W3C//DTD SVG 20010904//EN"
 "http://www.w3.org/TR/2001/REC-SVG-20010904/DTD/svg10.dtd">
<svg version="1.0" xmlns="http://www.w3.org/2000/svg"
 width="64.000000pt" height="64.000000pt" viewBox="0 0 64.000000 64.000000"
 preserveAspectRatio="xMidYMid meet">

<g transform="translate(0.000000,64.000000) scale(0.100000,-0.100000)"
fill="#000000" stroke="none">
<path d="M206 395 c-27 -27 -19 -53 25 -80 52 -33 50 -61 -4 -59 -25 1 -37 -3
-37 -12 0 -19 84 -19 100 0 20 25 7 60 -32 85 -21 13 -38 30 -38 37 0 17 34
27 61 19 15 -5 20 -3 17 6 -7 21 -72 23 -92 4z"/>
<path d="M322 398 c3 -7 17 -14 31 -16 27 -3 27 -5 27 -78 0 -43 4 -74 10 -74
6 0 10 31 10 74 0 73 0 75 27 78 14 2 28 9 31 16 3 9 -15 12 -68 12 -53 0 -71
-3 -68 -12z"/>
</g>
</svg>
